<?xml version="1.0" encoding="UTF-8" standalone="no"?>
<!DOCTYPE svg PUBLIC "-//W3C//DTD SVG 1.1//EN" "http://www.w3.org/Graphics/SVG/1.1/DTD/svg11.dtd">
<svg width="100%" height="100%" viewBox="0 0 662 662" version="1.1" xmlns="http://www.w3.org/2000/svg" xmlns:xlink="http://www.w3.org/1999/xlink" xml:space="preserve" xmlns:serif="http://www.serif.com/" style="fill-rule:evenodd;clip-rule:evenodd;stroke-linejoin:round;stroke-miterlimit:2;">
    <g transform="matrix(1,0,0,1,-4569.07,-1339.07)">
        <g transform="matrix(1,0,0,1,3940,1130)">
            <g transform="matrix(1.47696e-16,-2.26219,2.26219,1.47696e-16,-237.546,2707.54)">
                <g>
                    <g transform="matrix(0.280261,-0.450811,0.450811,0.280261,445.67,810.812)">
                        <path d="M818.579,398.579C781.071,436.086 760,486.957 760,540C760,650.383 849.617,740 960,740C1070.46,740 1160,650.457 1160,540L1158.38,540C1158.38,649.561 1069.56,738.378 960,738.378C850.512,738.378 761.622,649.488 761.622,540C761.622,487.387 782.523,436.929 819.726,399.726L818.579,398.579Z" style="fill:white;"/>
                    </g>
                    <g transform="matrix(0.310569,-0.499562,0.499562,0.310569,390.248,841.247)">
                        <path d="M818.579,398.579C781.071,436.086 760,486.957 760,540C760,650.383 849.617,740 960,740C1070.46,740 1160,650.457 1160,540L1145.39,540C1145.39,642.387 1062.39,725.388 960,725.388C857.682,725.388 774.612,642.318 774.612,540C774.612,490.832 794.144,443.678 828.911,408.911L818.579,398.579Z" style="fill:white;fill-opacity:0.1;"/>
                    </g>
                    <g transform="matrix(0.368299,-0.592422,0.592422,0.368299,284.684,899.218)">
                        <path d="M818.579,398.579C781.071,436.086 760,486.957 760,540C760,650.383 849.617,740 960,740C1070.46,740 1160,650.457 1160,540L1110,540C1110,622.843 1042.84,690 960,690C877.213,690 810,622.787 810,540C810,500.218 825.804,462.064 853.934,433.934L818.579,398.579Z" style="fill:white;fill-opacity:0.05;"/>
                    </g>
                    <g transform="matrix(0.56403,0.465893,-0.465893,0.56403,668.272,-222.458)">
                        <path d="M960,340C1070.38,340 1160,429.617 1160,540C1160,650.383 1070.38,740 960,740C849.617,740 760,650.383 760,540C760,429.617 849.617,340 960,340ZM960,344.166C1068.08,344.166 1155.83,431.916 1155.83,540C1155.83,648.084 1068.08,735.834 960,735.834C851.916,735.834 764.166,648.084 764.166,540C764.166,431.916 851.916,344.166 960,344.166Z" style="fill:white;fill-opacity:0.2;"/>
                    </g>
                    <g transform="matrix(-0.234525,0.34359,-0.34359,-0.234525,1368.84,326.172)">
                        <path d="M818.579,398.579C781.071,436.086 760,486.957 760,540C760,621.615 809.591,695.043 885.3,725.526L886.856,721.662C812.725,691.813 764.166,619.915 764.166,540C764.166,488.062 784.799,438.251 821.525,401.525L818.579,398.579Z" style="fill:white;fill-opacity:0.2;"/>
                    </g>
                    <g transform="matrix(0.270159,-0.43456,0.43456,0.270159,464.143,800.667)">
                        <path d="M865.572,716.305C894.616,731.86 927.053,740 960,740C1070.46,740 1160,650.457 1160,540L1155.29,540C1155.29,647.857 1067.86,735.293 960,735.293C927.828,735.293 896.155,727.345 867.794,712.155L865.572,716.305Z" style="fill:white;fill-opacity:0.3;"/>
                    </g>
                    <g transform="matrix(0.255726,-0.411345,0.411345,0.255726,490.534,786.174)">
                        <path d="M800.325,660.432C838.117,710.539 897.239,740 960,740C1070.46,740 1160,650.457 1160,540L1139.57,540C1139.57,639.174 1059.17,719.571 960,719.571C903.649,719.571 850.567,693.12 816.635,648.131L800.325,660.432Z" style="fill:white;fill-opacity:0.3;"/>
                    </g>
                    <g transform="matrix(-0.312849,0.197443,-0.197443,-0.312849,1365.11,508.769)">
                        <path d="M800.325,660.432C838.117,710.539 897.239,740 960,740C1070.38,740 1160,650.383 1160,540C1160,463.979 1116.9,394.531 1048.78,360.785L1046.11,366.18C1112.18,398.91 1153.98,466.268 1153.98,540C1153.98,647.06 1067.06,733.979 960,733.979C899.128,733.979 841.786,705.405 805.132,656.806L800.325,660.432Z" style="fill:white;fill-opacity:0.3;"/>
                    </g>
                </g>
            </g>
        </g>
    </g>
</svg>
