<?xml version="1.0" encoding="UTF-8" standalone="no"?>
<!DOCTYPE svg PUBLIC "-//W3C//DTD SVG 1.1//EN" "http://www.w3.org/Graphics/SVG/1.1/DTD/svg11.dtd">
<svg viewBox="0 0 662 662" xmlns="http://www.w3.org/2000/svg" xml:space="preserve" fill-rule="evenodd" clip-rule="evenodd" stroke-linejoin="round" stroke-miterlimit="2">
  <path d="M385.5 564.8A240.2 240.2 0 1 0 127 204.1l1.6 1A238.2 238.2 0 1 1 385 563l.5 2Z" fill="#fff"/>
  <path d="M391.4 590.1a266.1 266.1 0 1 0-286.5-399.7l16.5 10.3A246.7 246.7 0 1 1 387 571.2l4.4 19Z" fill="#fff" fill-opacity=".1"/>
  <path d="M402.6 638.3A315.6 315.6 0 1 0 63 164.3l67 41.7a236.7 236.7 0 1 1 254.8 355.4l18 76.9Z" fill="#fff" fill-opacity=".1"/>
  <path d="M75.7 120.1a331.1 331.1 0 0 1 466-44.4 331.1 331.1 0 0 1 44.4 466 331.1 331.1 0 0 1-466 44.4 331.1 331.1 0 0 1-44.4-466Zm5.4 4.4a324.2 324.2 0 0 1 456.2-43.4 324.2 324.2 0 0 1 43.5 456.2 324.2 324.2 0 0 1-456.3 43.5 324.2 324.2 0 0 1-43.4-456.3Z" fill="#fff" fill-opacity=".2"/>
  <path d="M296 146a188.2 188.2 0 0 0-121.6 289.5l3.3-2.2a184.3 184.3 0 0 1 119-283.5l-.7-3.8Z" fill="#fff" fill-opacity=".2"/>
  <path d="M531.5 215.3a231.5 231.5 0 0 0-397.2-6.6l4.7 2.9a226 226 0 0 1 387.8 6.4l4.7-2.7Z" fill="#fff" fill-opacity=".3"/>
  <path d="M549.2 311.2a219.1 219.1 0 0 0-404.4-96l19 11.9a196.8 196.8 0 0 1 363 86.2l22.4-2ZM174.4 271.7a167.4 167.4 0 1 0 323 42l-5 .5a162.3 162.3 0 1 1-313.3-40.7l-4.7-1.8Z" fill="#fff" fill-opacity=".3"/>
</svg>
